<svg width="199" height="63" viewBox="0 0 199 63" fill="none" xmlns="http://www.w3.org/2000/svg">
<path d="M28.8745 31.16C28.8274 26.0838 33.1555 23.6142 33.3534 23.4992C30.9022 20.0295 27.103 19.5554 25.7679 19.5176C22.577 19.1916 19.4818 21.3714 17.8563 21.3714C16.1984 21.3714 13.6953 19.5491 10.9976 19.6027C7.52602 19.6546 4.27833 21.6061 2.49713 24.6364C-1.17882 30.8151 1.56273 39.895 5.08458 44.8893C6.84631 47.3353 8.90491 50.0663 11.5994 49.9702C14.2355 49.8647 15.2202 48.3385 18.4014 48.3385C21.5534 48.3385 22.478 49.9702 25.2261 49.9088C28.0552 49.8647 29.8364 47.4518 31.5365 44.9838C33.5724 42.1803 34.39 39.4193 34.4225 39.2776C34.3559 39.2555 28.928 37.2442 28.8745 31.16Z" fill="white"/>
<path d="M23.6833 16.2322C25.1012 14.5107 26.0713 12.1687 25.802 9.79199C23.7499 9.88019 21.1835 11.1701 19.7057 12.8538C18.3982 14.3374 17.2302 16.7692 17.5319 19.0561C19.8371 19.2231 22.2039 17.9269 23.6833 16.2322Z" fill="white"/>
<path d="M59.5701 15.764C59.5701 17.6177 58.9975 19.0132 57.8538 19.9503C56.7945 20.815 55.2891 21.2481 53.3392 21.2481C52.3723 21.2481 51.545 21.2072 50.8523 21.1253V10.9964C51.7559 10.8547 52.7292 10.7822 53.7804 10.7822C55.6379 10.7822 57.0378 11.1744 57.982 11.9588C59.0397 12.8455 59.5701 14.1134 59.5701 15.764ZM57.7776 15.8096C57.7776 14.6079 57.4499 13.6865 56.7945 13.0439C56.1391 12.4029 55.182 12.0816 53.9215 12.0816C53.3862 12.0816 52.9304 12.1163 52.5524 12.1887V19.8889C52.7617 19.9204 53.1445 19.9346 53.7009 19.9346C55.0019 19.9346 56.0061 19.5833 56.7134 18.8809C57.4207 18.1784 57.7776 17.1547 57.7776 15.8096Z" fill="white"/>
<path d="M69.0748 17.3831C69.0748 18.525 68.739 19.4605 68.0674 20.1945C67.3633 20.9489 66.4305 21.3253 65.2658 21.3253C64.1432 21.3253 63.2494 20.9647 62.5826 20.2402C61.9175 19.5172 61.585 18.6053 61.585 17.506C61.585 16.3562 61.9272 15.4128 62.6151 14.6804C63.3029 13.948 64.2276 13.5811 65.3923 13.5811C66.5149 13.5811 67.4168 13.9417 68.0998 14.6647C68.7487 15.3671 69.0748 16.2743 69.0748 17.3831ZM67.3114 17.4367C67.3114 16.7515 67.1589 16.1641 66.8556 15.6742C66.4987 15.082 65.9909 14.7859 65.3307 14.7859C64.6477 14.7859 64.1286 15.082 63.7717 15.6742C63.4667 16.1641 63.3159 16.761 63.3159 17.4666C63.3159 18.1517 63.4684 18.7392 63.7717 19.229C64.14 19.8212 64.6526 20.1173 65.3145 20.1173C65.9633 20.1173 66.4727 19.8165 66.8393 19.2133C67.154 18.714 67.3114 18.1218 67.3114 17.4367Z" fill="white"/>
<path d="M81.8188 13.7324L79.426 21.157H77.8687L76.8775 17.9329C76.6261 17.1281 76.4217 16.328 76.2627 15.5342H76.2319C76.0842 16.3501 75.8798 17.1486 75.617 17.9329L74.5642 21.157H72.989L70.739 13.7324H72.4861L73.3508 17.262C73.5601 18.0967 73.732 18.8921 73.8699 19.645H73.9007C74.0273 19.0244 74.2365 18.2338 74.5318 17.2777L75.617 13.734H77.0024L78.0423 17.2021C78.2937 18.0479 78.4981 18.8622 78.6555 19.6465H78.7025C78.8177 18.8827 78.9913 18.0684 79.2216 17.2021L80.1495 13.734H81.8188V13.7324Z" fill="white"/>
<path d="M90.6324 21.1571H88.9324V16.9046C88.9324 15.5942 88.4197 14.939 87.3913 14.939C86.8867 14.939 86.4796 15.1186 86.1632 15.4793C85.8501 15.8399 85.6912 16.2652 85.6912 16.7519V21.1556H83.9911V15.8541C83.9911 15.2021 83.97 14.4949 83.9294 13.7294H85.4235L85.503 14.8902H85.55C85.748 14.5295 86.0432 14.2319 86.4309 13.994C86.8916 13.7168 87.4075 13.5767 87.972 13.5767C88.6858 13.5767 89.2795 13.8003 89.7516 14.2492C90.3388 14.7989 90.6324 15.6194 90.6324 16.7093V21.1571Z" fill="white"/>
<path d="M95.3208 21.157H93.6223V10.3257H95.3208V21.157Z" fill="white"/>
<path d="M105.33 17.3831C105.33 18.525 104.994 19.4605 104.322 20.1945C103.618 20.9489 102.684 21.3253 101.521 21.3253C100.397 21.3253 99.5029 20.9647 98.8378 20.2402C98.1726 19.5172 97.8401 18.6053 97.8401 17.506C97.8401 16.3562 98.1824 15.4128 98.8702 14.6804C99.558 13.948 100.483 13.5811 101.646 13.5811C102.77 13.5811 103.67 13.9417 104.355 14.6647C105.004 15.3671 105.33 16.2743 105.33 17.3831ZM103.565 17.4367C103.565 16.7515 103.412 16.1641 103.109 15.6742C102.754 15.082 102.244 14.7859 101.586 14.7859C100.901 14.7859 100.382 15.082 100.027 15.6742C99.7219 16.1641 99.571 16.761 99.571 17.4666C99.571 18.1517 99.7235 18.7392 100.027 19.229C100.395 19.8212 100.908 20.1173 101.57 20.1173C102.218 20.1173 102.726 19.8165 103.093 19.2133C103.409 18.714 103.565 18.1218 103.565 17.4367Z" fill="white"/>
<path d="M113.558 21.1568H112.031L111.905 20.3016H111.858C111.335 20.9836 110.591 21.3253 109.624 21.3253C108.902 21.3253 108.318 21.1001 107.878 20.6528C107.479 20.2465 107.28 19.7409 107.28 19.1408C107.28 18.2336 107.669 17.5422 108.453 17.0634C109.235 16.5846 110.334 16.3499 111.751 16.3609V16.2223C111.751 15.2443 111.222 14.756 110.162 14.756C109.408 14.756 108.743 14.9403 108.169 15.3057L107.823 14.2221C108.534 13.7953 109.411 13.5811 110.446 13.5811C112.445 13.5811 113.447 14.6048 113.447 16.6523V19.3865C113.447 20.1283 113.485 20.719 113.558 21.1568ZM111.793 18.6053V17.4603C109.918 17.4288 108.98 17.9281 108.98 18.9565C108.98 19.344 109.087 19.6338 109.306 19.8275C109.525 20.0212 109.804 20.1173 110.137 20.1173C110.51 20.1173 110.858 20.0023 111.176 19.774C111.496 19.544 111.692 19.2526 111.765 18.8951C111.783 18.8148 111.793 18.7171 111.793 18.6053Z" fill="white"/>
<path d="M123.218 21.157H121.709L121.63 19.9647H121.583C121.101 20.8719 120.28 21.3255 119.127 21.3255C118.205 21.3255 117.438 20.9743 116.83 20.2718C116.221 19.5694 115.918 18.6574 115.918 17.5376C115.918 16.3359 116.247 15.3625 116.909 14.6191C117.55 13.9261 118.335 13.5796 119.269 13.5796C120.296 13.5796 121.015 13.9151 121.424 14.5876H121.456V10.3257H123.158V19.1567C123.158 19.8796 123.177 20.5459 123.218 21.157ZM121.456 18.0259V16.7879C121.456 16.5737 121.44 16.4005 121.409 16.2682C121.313 15.8713 121.107 15.5374 120.794 15.268C120.478 14.9987 120.097 14.8633 119.657 14.8633C119.023 14.8633 118.526 15.1074 118.161 15.5972C117.8 16.087 117.616 16.7123 117.616 17.4762C117.616 18.2101 117.79 18.8055 118.139 19.2638C118.507 19.7521 119.003 19.9962 119.625 19.9962C120.183 19.9962 120.629 19.793 120.968 19.3851C121.296 19.0087 121.456 18.5551 121.456 18.0259Z" fill="white"/>
<path d="M137.758 17.3831C137.758 18.525 137.422 19.4605 136.751 20.1945C136.047 20.9489 135.116 21.3253 133.949 21.3253C132.828 21.3253 131.934 20.9647 131.266 20.2402C130.601 19.5172 130.268 18.6053 130.268 17.506C130.268 16.3562 130.611 15.4128 131.298 14.6804C131.986 13.948 132.911 13.5811 134.077 13.5811C135.198 13.5811 136.102 13.9417 136.783 14.6647C137.432 15.3671 137.758 16.2743 137.758 17.3831ZM135.996 17.4367C135.996 16.7515 135.844 16.1641 135.541 15.6742C135.182 15.082 134.676 14.7859 134.014 14.7859C133.333 14.7859 132.814 15.082 132.455 15.6742C132.15 16.1641 131.999 16.761 131.999 17.4666C131.999 18.1517 132.152 18.7392 132.455 19.229C132.823 19.8212 133.336 20.1173 133.998 20.1173C134.647 20.1173 135.158 19.8165 135.524 19.2133C135.837 18.714 135.996 18.1218 135.996 17.4367Z" fill="white"/>
<path d="M146.899 21.1571H145.201V16.9046C145.201 15.5942 144.688 14.939 143.658 14.939C143.153 14.939 142.746 15.1186 142.432 15.4793C142.117 15.8399 141.959 16.2652 141.959 16.7519V21.1556H140.258V15.8541C140.258 15.2021 140.238 14.4949 140.198 13.7294H141.69L141.77 14.8902H141.817C142.016 14.5295 142.312 14.2319 142.698 13.994C143.16 13.7168 143.674 13.5767 144.24 13.5767C144.952 13.5767 145.546 13.8003 146.018 14.2492C146.607 14.7989 146.899 15.6194 146.899 16.7093V21.1571Z" fill="white"/>
<path d="M158.341 14.9687H156.469V18.5755C156.469 19.4921 156.801 19.9505 157.46 19.9505C157.765 19.9505 158.018 19.9253 158.217 19.8733L158.261 21.1254C157.925 21.2483 157.484 21.3097 156.941 21.3097C156.269 21.3097 155.747 21.1112 155.369 20.7143C154.989 20.3174 154.801 19.6496 154.801 18.7125V14.9687H153.683V13.7324H154.801V12.3716L156.467 11.8833V13.7308H158.339V14.9687H158.341Z" fill="white"/>
<path d="M167.341 21.157H165.639V16.936C165.639 15.6051 165.127 14.9389 164.1 14.9389C163.311 14.9389 162.773 15.3247 162.477 16.0965C162.427 16.2587 162.398 16.4572 162.398 16.6903V21.1554H160.699V10.3257H162.398V14.8003H162.43C162.966 13.986 163.733 13.5796 164.727 13.5796C165.432 13.5796 166.014 13.8033 166.476 14.2522C167.052 14.8113 167.341 15.6429 167.341 16.7422V21.157Z" fill="white"/>
<path d="M176.625 17.0933C176.625 17.3894 176.602 17.6383 176.562 17.8414H171.463C171.486 18.5754 171.729 19.1345 172.201 19.522C172.633 19.8685 173.189 20.0417 173.87 20.0417C174.625 20.0417 175.313 19.9252 175.932 19.6905L176.198 20.8371C175.473 21.1426 174.62 21.2954 173.632 21.2954C172.448 21.2954 171.515 20.9568 170.84 20.2795C170.162 19.6023 169.826 18.6935 169.826 17.5532C169.826 16.4334 170.139 15.501 170.77 14.7576C171.429 13.9638 172.32 13.5669 173.444 13.5669C174.544 13.5669 175.379 13.9638 175.944 14.7576C176.399 15.3876 176.625 16.1672 176.625 17.0933ZM175.003 16.6665C175.016 16.1767 174.904 15.7546 174.673 15.3986C174.378 14.9403 173.929 14.7103 173.32 14.7103C172.766 14.7103 172.313 14.934 171.968 15.3829C171.685 15.7404 171.518 16.1672 171.463 16.6665H175.003Z" fill="white"/>
<path d="M67.0242 49.6188H63.3402L61.3221 43.4621H54.3076L52.3853 49.6188H48.7986L55.7482 28.6587H60.0406L67.0242 49.6188ZM60.7138 40.8791L58.8888 35.406C58.6958 34.8469 58.334 33.5302 57.8003 31.4575H57.7354C57.5229 32.3489 57.1806 33.6656 56.7102 35.406L54.9176 40.8791H60.7138Z" fill="white"/>
<path d="M84.8962 41.8761C84.8962 44.4465 84.1808 46.4782 82.75 47.9698C81.4685 49.2975 79.8771 49.9606 77.9774 49.9606C75.927 49.9606 74.454 49.2455 73.5569 47.8154H73.492V55.777H70.0334V39.4805C70.0334 37.8646 69.9896 36.2061 69.9053 34.5051H72.9469L73.14 36.9007H73.2049C74.3583 35.0957 76.1086 34.1948 78.4576 34.1948C80.294 34.1948 81.827 34.8988 83.0534 36.3085C84.283 37.7197 84.8962 39.575 84.8962 41.8761ZM81.3728 41.9989C81.3728 40.5279 81.0321 39.3151 80.3475 38.3607C79.5997 37.3653 78.5955 36.8676 77.3367 36.8676C76.4834 36.8676 75.708 37.1448 75.0153 37.6913C74.321 38.2426 73.8667 38.9623 73.6542 39.8538C73.5472 40.2696 73.4936 40.6098 73.4936 40.8775V43.3975C73.4936 44.4969 73.8408 45.4246 74.5351 46.1821C75.2294 46.9397 76.1314 47.3177 77.241 47.3177C78.5436 47.3177 79.5575 46.8295 80.2826 45.8561C81.0094 44.8812 81.3728 43.596 81.3728 41.9989Z" fill="white"/>
<path d="M102.801 41.8761C102.801 44.4465 102.085 46.4782 100.653 47.9698C99.3731 49.2975 97.7817 49.9606 95.8821 49.9606C93.8316 49.9606 92.3586 49.2455 91.4631 47.8154H91.3983V55.777H87.9397V39.4805C87.9397 37.8646 87.8959 36.2061 87.8115 34.5051H90.8532L91.0462 36.9007H91.1111C92.2629 35.0957 94.0133 34.1948 96.3639 34.1948C98.1986 34.1948 99.7316 34.8988 100.961 36.3085C102.186 37.7197 102.801 39.575 102.801 41.8761ZM99.2774 41.9989C99.2774 40.5279 98.9351 39.3151 98.2505 38.3607C97.5027 37.3653 96.5018 36.8676 95.2413 36.8676C94.3864 36.8676 93.6126 37.1448 92.9183 37.6913C92.224 38.2426 91.7714 38.9623 91.5589 39.8538C91.4534 40.2696 91.3983 40.6098 91.3983 40.8775V43.3975C91.3983 44.4969 91.7454 45.4246 92.4365 46.1821C93.1308 46.9381 94.0328 47.3177 95.1456 47.3177C96.4482 47.3177 97.4621 46.8295 98.1873 45.8561C98.914 44.8812 99.2774 43.596 99.2774 41.9989Z" fill="white"/>
<path d="M122.819 43.7409C122.819 45.5238 122.181 46.9744 120.901 48.0942C119.495 49.318 117.537 49.9291 115.021 49.9291C112.698 49.9291 110.835 49.4944 109.426 48.6234L110.227 45.8246C111.746 46.7161 113.412 47.1634 115.227 47.1634C116.53 47.1634 117.543 46.8767 118.272 46.3066C118.997 45.7364 119.359 44.971 119.359 44.0165C119.359 43.166 119.06 42.4494 118.462 41.8682C117.866 41.287 116.872 40.7468 115.483 40.2475C111.703 38.8789 109.815 36.8739 109.815 34.2373C109.815 32.5143 110.477 31.1015 111.802 30.0022C113.123 28.9012 114.885 28.3516 117.088 28.3516C119.052 28.3516 120.684 28.6839 121.987 29.347L121.122 32.0843C119.905 31.4417 118.53 31.1204 116.99 31.1204C115.774 31.1204 114.823 31.4118 114.142 31.9914C113.566 32.5096 113.277 33.1411 113.277 33.8893C113.277 34.7177 113.606 35.4028 114.268 35.9415C114.844 36.4392 115.89 36.9778 117.409 37.559C119.266 38.2851 120.63 39.134 121.508 40.1074C122.382 41.0776 122.819 42.2919 122.819 43.7409Z" fill="white"/>
<path d="M134.254 37.0251H130.442V44.363C130.442 46.2294 131.113 47.1618 132.46 47.1618C133.078 47.1618 133.59 47.1098 133.996 47.0059L134.092 49.5558C133.41 49.8031 132.513 49.9275 131.402 49.9275C130.036 49.9275 128.969 49.5227 128.198 48.7147C127.431 47.9052 127.045 46.5475 127.045 44.6402V37.0219H124.774V34.5019H127.045V31.7347L130.442 30.7393V34.5019H134.254V37.0251Z" fill="white"/>
<path d="M151.454 41.9374C151.454 44.2605 150.77 46.1679 149.404 47.6594C147.971 49.195 146.07 49.9605 143.7 49.9605C141.416 49.9605 139.597 49.2249 138.241 47.7539C136.885 46.2828 136.207 44.4259 136.207 42.1878C136.207 39.8458 136.905 37.9275 138.305 36.4359C139.701 34.9428 141.586 34.1963 143.956 34.1963C146.24 34.1963 148.078 34.9318 149.465 36.4044C150.792 37.833 151.454 39.6773 151.454 41.9374ZM147.866 42.0461C147.866 40.6522 147.559 39.4568 146.938 38.4598C146.213 37.2534 145.176 36.6517 143.833 36.6517C142.443 36.6517 141.387 37.2549 140.662 38.4598C140.04 39.4584 139.734 40.6727 139.734 42.1091C139.734 43.503 140.04 44.6984 140.662 45.6938C141.409 46.9002 142.454 47.5019 143.802 47.5019C145.123 47.5019 146.159 46.8876 146.907 45.6623C147.545 44.6464 147.866 43.4384 147.866 42.0461Z" fill="white"/>
<path d="M162.696 37.4582C162.354 37.3968 161.989 37.3653 161.606 37.3653C160.39 37.3653 159.449 37.811 158.787 38.704C158.211 39.4915 157.922 40.4869 157.922 41.6887V49.6188H154.465L154.498 39.2647C154.498 37.5228 154.454 35.9368 154.368 34.5067H157.38L157.507 37.3984H157.603C157.968 36.4045 158.544 35.6044 159.332 35.0044C160.102 34.4641 160.935 34.1948 161.832 34.1948C162.151 34.1948 162.44 34.2169 162.696 34.2562V37.4582Z" fill="white"/>
<path d="M178.164 41.3469C178.164 41.9486 178.124 42.4557 178.038 42.87H167.662C167.703 44.3631 168.204 45.5049 169.168 46.2924C170.042 46.9965 171.173 47.3493 172.561 47.3493C174.097 47.3493 175.499 47.1114 176.76 46.6342L177.301 48.9652C175.828 49.5889 174.089 49.8992 172.083 49.8992C169.669 49.8992 167.774 49.2093 166.395 47.8312C165.02 46.4531 164.33 44.6025 164.33 42.2809C164.33 40.0019 164.971 38.104 166.254 36.5904C167.597 34.9745 169.412 34.1665 171.697 34.1665C173.94 34.1665 175.639 34.9745 176.792 36.5904C177.705 37.8741 178.164 39.4617 178.164 41.3469ZM174.866 40.476C174.889 39.4806 174.664 38.6206 174.195 37.8945C173.596 36.9606 172.676 36.4944 171.439 36.4944C170.308 36.4944 169.388 36.9495 168.686 37.863C168.11 38.5891 167.768 39.4601 167.662 40.4744H174.866V40.476Z" fill="white"/>
</svg>
