<svg width="49" height="58" viewBox="0 0 49 58" fill="none" xmlns="http://www.w3.org/2000/svg">
<path d="M39.1068 30.1981C39.4974 29.8076 39.4974 29.1744 39.1068 28.7839L32.7429 22.4199C32.3524 22.0294 31.7192 22.0294 31.3287 22.4199C30.9381 22.8105 30.9381 23.4436 31.3287 23.8341L36.9855 29.491L31.3287 35.1479C30.9381 35.5384 30.9381 36.1715 31.3287 36.5621C31.7192 36.9526 32.3524 36.9526 32.7429 36.5621L39.1068 30.1981ZM19.6042 1.00016L19.6074 2.00015L19.6042 1.00016ZM47.9998 28.6972L48.9998 28.6939L47.9998 28.6972ZM19.7882 56.5788L19.7915 57.5788L19.7882 56.5788ZM0 30.491H38.3997V28.491H0V30.491ZM19.6074 2.00015C34.7042 1.95092 46.9509 13.9223 46.9999 28.7005L48.9998 28.6939C48.9471 12.7768 35.7675 -0.0525627 19.6009 0.000161946L19.6074 2.00015ZM46.9999 28.7005C47.0488 43.4786 34.8817 55.5296 19.7849 55.5788L19.7915 57.5788C35.9581 57.5261 49.0525 44.611 48.9998 28.6939L46.9999 28.7005ZM19.7849 55.5788C13.1403 55.6005 7.04659 53.2928 2.30142 49.4408L1.04091 50.9936C6.13388 55.1279 12.6724 57.602 19.7915 57.5788L19.7849 55.5788ZM2.16501 8.25203C6.88454 4.36916 12.9628 2.02182 19.6074 2.00015L19.6009 0.000161946C12.4819 0.0233795 5.95985 2.54004 0.894335 6.70756L2.16501 8.25203Z" fill="#3E3E40"/>
</svg>
