<svg width="203" height="63" viewBox="0 0 203 63" fill="none" xmlns="http://www.w3.org/2000/svg">
<path d="M1.5677 11.8731C1.09552 12.3574 0.822266 13.1114 0.822266 14.0879V48.9191C0.822266 49.8956 1.09552 50.6496 1.5677 51.1339L1.68424 51.2402L21.604 31.7299V31.2692L1.68424 11.7589L1.5677 11.8731Z" fill="white"/>
<path d="M30.6477 38.2368L24.0151 31.7301V31.2694L30.6557 24.7627L30.8044 24.8474L38.6687 29.2318C40.913 30.476 40.913 32.5235 38.6687 33.7756L30.8044 38.1522L30.6477 38.2368Z" fill="white"/>
<path d="M29.5988 39.3636L22.8095 32.7112L2.77319 52.3455C3.51863 53.1133 4.73423 53.2059 6.1166 52.438L29.5988 39.3636Z" fill="white"/>
<path d="M29.5988 23.6357L6.1166 10.5612C4.73423 9.80128 3.51863 9.8938 2.77319 10.6616L22.8095 30.2881L29.5988 23.6357Z" fill="white"/>
<path d="M62.2191 16.1335C62.2191 17.4487 61.8173 18.5019 61.0256 19.2875C60.1154 20.2187 58.93 20.6873 57.4773 20.6873C56.0889 20.6873 54.9034 20.2108 53.9309 19.2717C52.9565 18.3189 52.4702 17.1494 52.4702 15.7496C52.4702 14.3499 52.9565 13.1804 53.9309 12.2354C54.9034 11.2885 56.0889 10.812 57.4773 10.812C58.1685 10.812 58.8275 10.9518 59.4564 11.2117C60.0833 11.4735 60.5936 11.8279 60.9634 12.2649L60.1235 13.0958C59.4785 12.3496 58.6005 11.9815 57.4773 11.9815C56.4646 11.9815 55.5866 12.3279 54.8411 13.0269C54.1037 13.7277 53.734 14.6353 53.734 15.7496C53.734 16.8639 54.1037 17.7794 54.8411 18.4803C55.5866 19.1713 56.4646 19.5257 57.4773 19.5257C58.5522 19.5257 59.4564 19.1713 60.1697 18.4724C60.6399 18.0098 60.9071 17.3719 60.9774 16.5568H57.4773V15.4189H62.1468C62.2031 15.665 62.2191 15.9032 62.2191 16.1335Z" fill="white" stroke="white" stroke-width="0.16" stroke-miterlimit="10"/>
<path d="M69.6272 12.1884H65.241V15.1809H69.1952V16.3188H65.241V19.3113H69.6272V20.4709H63.9993V11.0288H69.6272V12.1884Z" fill="white" stroke="white" stroke-width="0.16" stroke-miterlimit="10"/>
<path d="M74.8555 20.4709H73.6137V12.1884H70.9233V11.0288H77.5479V12.1884H74.8555V20.4709Z" fill="white" stroke="white" stroke-width="0.16" stroke-miterlimit="10"/>
<path d="M82.3418 20.4709V11.0288H83.5815V20.4709H82.3418Z" fill="white" stroke="white" stroke-width="0.16" stroke-miterlimit="10"/>
<path d="M89.0769 20.4709H87.8452V12.1884H85.1448V11.0288H91.7773V12.1884H89.0769V20.4709Z" fill="white" stroke="white" stroke-width="0.16" stroke-miterlimit="10"/>
<path d="M104.319 19.256C103.369 20.2108 102.191 20.6873 100.787 20.6873C99.3743 20.6873 98.1969 20.2108 97.2465 19.256C96.2981 18.3031 95.8259 17.1337 95.8259 15.7496C95.8259 14.3656 96.2981 13.1962 97.2465 12.2433C98.1969 11.2884 99.3743 10.812 100.787 10.812C102.183 10.812 103.361 11.2884 104.311 12.2512C105.267 13.2119 105.74 14.3735 105.74 15.7496C105.74 17.1337 105.267 18.3031 104.319 19.256ZM98.1647 18.4645C98.88 19.1713 99.75 19.5257 100.787 19.5257C101.816 19.5257 102.694 19.1713 103.401 18.4645C104.114 17.7578 104.476 16.8502 104.476 15.7496C104.476 14.6491 104.114 13.7415 103.401 13.0347C102.694 12.3279 101.816 11.9736 100.787 11.9736C99.75 11.9736 98.88 12.3279 98.1647 13.0347C97.4514 13.7415 97.0898 14.6491 97.0898 15.7496C97.0898 16.8502 97.4514 17.7578 98.1647 18.4645Z" fill="white" stroke="white" stroke-width="0.16" stroke-miterlimit="10"/>
<path d="M107.482 20.4709V11.0288H108.989L113.674 18.3722H113.728L113.674 16.5571V11.0288H114.914V20.4709H113.62L108.713 12.7652H108.659L108.713 14.5883V20.4709H107.482Z" fill="white" stroke="white" stroke-width="0.16" stroke-miterlimit="10"/>
<path d="M95.5207 34.26C91.7453 34.26 88.6611 37.0753 88.6611 40.9597C88.6611 44.8125 91.7453 47.6573 95.5207 47.6573C99.3041 47.6573 102.388 44.8125 102.388 40.9597C102.388 37.0753 99.3041 34.26 95.5207 34.26ZM95.5207 45.0192C93.4492 45.0192 91.6669 43.3438 91.6669 40.9597C91.6669 38.544 93.4492 36.8981 95.5207 36.8981C97.5922 36.8981 99.3825 38.544 99.3825 40.9597C99.3825 43.3438 97.5922 45.0192 95.5207 45.0192ZM80.5537 34.26C76.7703 34.26 73.6941 37.0753 73.6941 40.9597C73.6941 44.8125 76.7703 47.6573 80.5537 47.6573C84.3352 47.6573 87.4133 44.8125 87.4133 40.9597C87.4133 37.0753 84.3352 34.26 80.5537 34.26ZM80.5537 45.0192C78.4802 45.0192 76.6919 43.3438 76.6919 40.9597C76.6919 38.544 78.4802 36.8981 80.5537 36.8981C82.6253 36.8981 84.4075 38.544 84.4075 40.9597C84.4075 43.3438 82.6253 45.0192 80.5537 45.0192ZM62.7437 36.3134V39.1602H69.6816C69.4787 40.751 68.9362 41.9204 68.1044 42.7355C67.0917 43.7198 65.5144 44.8125 62.7437 44.8125C58.474 44.8125 55.1306 41.4361 55.1306 37.2525C55.1306 33.0689 58.474 29.6925 62.7437 29.6925C65.0523 29.6925 66.732 30.5765 67.9718 31.7223L70.0192 29.7161C68.2852 28.0939 65.9786 26.8477 62.7437 26.8477C56.8887 26.8477 51.968 31.5156 51.968 37.2525C51.968 42.9894 56.8887 47.6573 62.7437 47.6573C65.9083 47.6573 68.2852 46.6415 70.1538 44.7357C72.0686 42.8595 72.6654 40.2214 72.6654 38.0912C72.6654 37.4297 72.6091 36.8213 72.5087 36.3134H62.7437ZM135.571 38.5204C135.007 37.0222 133.265 34.26 129.716 34.26C126.2 34.26 123.273 36.9749 123.273 40.9597C123.273 44.7121 126.17 47.6573 130.054 47.6573C133.194 47.6573 135.007 45.7811 135.752 44.6885L133.421 43.1666C132.644 44.2809 131.585 45.0192 130.054 45.0192C128.533 45.0192 127.442 44.3361 126.743 42.9894L135.887 39.2823L135.571 38.5204ZM126.248 40.751C126.17 38.168 128.296 36.845 129.819 36.845C131.012 36.845 132.025 37.4297 132.362 38.2664L126.248 40.751ZM118.816 47.2498H121.822V27.5623H118.816V47.2498ZM113.893 35.7523H113.793C113.118 34.9688 111.83 34.26 110.198 34.26C106.775 34.26 103.644 37.2053 103.644 40.9813C103.644 44.7357 106.775 47.6573 110.198 47.6573C111.83 47.6573 113.118 46.9427 113.793 46.1355H113.893V47.0963C113.893 49.6576 112.497 51.0337 110.245 51.0337C108.408 51.0337 107.269 49.7344 106.799 48.6417L104.185 49.7108C104.938 51.4866 106.933 53.6719 110.245 53.6719C113.769 53.6719 116.742 51.6401 116.742 46.6966V34.6675H113.893V35.7523ZM110.456 45.0192C108.384 45.0192 106.65 43.3202 106.65 40.9813C106.65 38.6208 108.384 36.8981 110.456 36.8981C112.497 36.8981 114.106 38.6208 114.106 40.9813C114.106 43.3202 112.497 45.0192 110.456 45.0192ZM149.644 27.5623H142.455V47.2498H145.453V39.7902H149.644C152.973 39.7902 156.238 37.4297 156.238 33.6753C156.238 29.9228 152.965 27.5623 149.644 27.5623ZM149.722 37.0517H145.453V30.3008H149.722C151.961 30.3008 153.239 32.1219 153.239 33.6753C153.239 35.1991 151.961 37.0517 149.722 37.0517ZM168.254 34.2226C166.088 34.2226 163.835 35.1597 162.909 37.2368L165.569 38.3294C166.142 37.2368 167.195 36.8824 168.308 36.8824C169.863 36.8824 171.441 37.7978 171.465 39.4142V39.6209C170.922 39.3138 169.761 38.859 168.332 38.859C165.467 38.859 162.548 40.4045 162.548 43.2887C162.548 45.9268 164.894 47.6258 167.533 47.6258C169.55 47.6258 170.663 46.734 171.362 45.6965H171.465V47.2183H174.36V39.6662C174.36 36.1756 171.7 34.2226 168.254 34.2226ZM167.892 45.0113C166.912 45.0113 165.545 44.5349 165.545 43.3438C165.545 41.82 167.249 41.2353 168.724 41.2353C170.044 41.2353 170.663 41.5208 171.465 41.8968C171.23 43.7198 169.628 45.0113 167.892 45.0113ZM184.909 34.6538L181.463 43.1883H181.36L177.798 34.6538H174.565L179.918 46.5804L176.864 53.2171H179.996L188.244 34.6538H184.909ZM157.886 47.2498H160.892V27.5623H157.886V47.2498Z" fill="white"/>
</svg>
