<svg width="441" height="47" viewBox="0 0 441 47" fill="none" xmlns="http://www.w3.org/2000/svg">
<path d="M6.864 1.4C7.424 1.4 7.848 1.552 8.136 1.856C8.44 2.16 8.592 2.584 8.592 3.128V33.272C8.592 33.816 8.44 34.24 8.136 34.544C7.848 34.848 7.424 35 6.864 35H2.376C1.832 35 1.408 34.848 1.104 34.544C0.8 34.24 0.648 33.816 0.648 33.272V3.128C0.648 2.584 0.8 2.16 1.104 1.856C1.408 1.552 1.832 1.4 2.376 1.4H6.864ZM16.0253 26.24C16.7453 25.424 17.5613 25.384 18.4733 26.12C20.7453 27.976 23.1773 28.904 25.7693 28.904C27.1773 28.904 28.3213 28.592 29.2013 27.968C30.0813 27.328 30.5213 26.496 30.5213 25.472C30.5213 24.432 30.0653 23.552 29.1533 22.832C28.2573 22.096 26.6173 21.472 24.2333 20.96C21.0173 20.272 18.5133 19.064 16.7213 17.336C14.9453 15.592 14.0573 13.44 14.0573 10.88C14.0573 7.952 15.1213 5.544 17.2493 3.656C19.3933 1.768 22.1613 0.823999 25.5533 0.823999C28.6093 0.823999 31.2093 1.568 33.3533 3.056C35.5133 4.528 36.8973 6.632 37.5053 9.368C37.6333 9.944 37.5453 10.4 37.2413 10.736C36.9533 11.072 36.5133 11.24 35.9213 11.24H31.5533C31.0573 11.24 30.6573 11.12 30.3533 10.88C30.0653 10.64 29.8173 10.264 29.6093 9.752C28.9373 8.184 27.7053 7.4 25.9133 7.4C24.7773 7.4 23.8493 7.672 23.1293 8.216C22.4253 8.744 22.0733 9.424 22.0733 10.256C22.0733 11.248 22.5053 12.104 23.3693 12.824C24.2493 13.544 25.7373 14.144 27.8333 14.624C34.9693 16.272 38.5373 19.76 38.5373 25.088C38.5373 28.144 37.4093 30.656 35.1533 32.624C32.8973 34.592 29.8893 35.576 26.1293 35.576C21.8413 35.576 18.0893 33.672 14.8733 29.864C14.2173 29.032 14.2493 28.216 14.9693 27.416L16.0253 26.24ZM43.2945 27.008C41.7105 24.352 40.9185 21.416 40.9185 18.2C40.9185 14.984 41.7105 12.048 43.2945 9.392C44.8785 6.736 47.0545 4.648 49.8225 3.128C52.6065 1.592 55.6865 0.823999 59.0625 0.823999C62.4385 0.823999 65.5105 1.592 68.2785 3.128C71.0625 4.648 73.2465 6.736 74.8305 9.392C76.4145 12.048 77.2065 14.984 77.2065 18.2C77.2065 21.416 76.4145 24.352 74.8305 27.008C73.2465 29.664 71.0625 31.76 68.2785 33.296C65.5105 34.816 62.4385 35.576 59.0625 35.576C55.6865 35.576 52.6065 34.816 49.8225 33.296C47.0545 31.76 44.8785 29.664 43.2945 27.008ZM51.8385 10.736C49.9025 12.736 48.9345 15.224 48.9345 18.2C48.9345 21.176 49.9025 23.664 51.8385 25.664C53.7905 27.664 56.1985 28.664 59.0625 28.664C61.9265 28.664 64.3265 27.664 66.2625 25.664C68.2145 23.664 69.1905 21.176 69.1905 18.2C69.1905 15.224 68.2145 12.736 66.2625 10.736C64.3265 8.736 61.9265 7.736 59.0625 7.736C56.1985 7.736 53.7905 8.736 51.8385 10.736ZM92.1383 22.736C91.5623 22.832 90.9063 22.88 90.1703 22.88C88.5223 22.864 86.9303 22.432 85.3943 21.584C83.8743 20.72 82.6103 19.472 81.6023 17.84C80.6103 16.192 80.1143 14.36 80.1143 12.344C80.1143 10.184 80.6823 8.224 81.8183 6.464C82.9543 4.688 84.4663 3.312 86.3543 2.336C88.2423 1.36 90.2903 0.871999 92.4983 0.871999C94.7543 0.871999 96.8263 1.36 98.7143 2.336C100.618 3.312 102.138 4.688 103.274 6.464C104.41 8.224 104.978 10.184 104.978 12.344C104.978 14.568 104.418 16.544 103.298 18.272L93.1223 33.92C92.6423 34.672 91.9463 35.048 91.0343 35.048H86.5463C85.8423 35.048 85.3783 34.848 85.1543 34.448C84.9463 34.048 85.0343 33.552 85.4183 32.96L92.1383 22.736ZM87.7463 12.392C87.7463 13.8 88.2103 14.976 89.1383 15.92C90.0663 16.864 91.2023 17.336 92.5463 17.336C93.9063 17.336 95.0503 16.864 95.9783 15.92C96.9063 14.976 97.3703 13.8 97.3703 12.392C97.3703 11 96.8983 9.832 95.9543 8.888C95.0263 7.944 93.8903 7.472 92.5463 7.472C91.2023 7.472 90.0663 7.944 89.1383 8.888C88.2103 9.832 87.7463 11 87.7463 12.392ZM109.968 27.152C109.072 24.56 108.624 21.576 108.624 18.2C108.624 14.824 109.072 11.848 109.968 9.272C110.864 6.68 112.232 4.624 114.072 3.104C115.928 1.584 118.144 0.823999 120.72 0.823999C123.296 0.823999 125.504 1.584 127.344 3.104C129.2 4.624 130.576 6.68 131.472 9.272C132.368 11.848 132.816 14.824 132.816 18.2C132.816 21.576 132.368 24.56 131.472 27.152C130.576 29.728 129.2 31.776 127.344 33.296C125.504 34.816 123.296 35.576 120.72 35.576C118.144 35.576 115.928 34.816 114.072 33.296C112.232 31.776 110.864 29.728 109.968 27.152ZM116.304 18.2C116.304 21.464 116.672 24 117.408 25.808C118.144 27.616 119.248 28.52 120.72 28.52C122.192 28.52 123.296 27.616 124.032 25.808C124.768 24 125.136 21.464 125.136 18.2C125.136 14.952 124.768 12.424 124.032 10.616C123.296 8.808 122.192 7.904 120.72 7.904C119.248 7.904 118.144 8.808 117.408 10.616C116.672 12.424 116.304 14.952 116.304 18.2ZM138.117 27.152C137.221 24.56 136.773 21.576 136.773 18.2C136.773 14.824 137.221 11.848 138.117 9.272C139.013 6.68 140.381 4.624 142.221 3.104C144.077 1.584 146.293 0.823999 148.869 0.823999C151.445 0.823999 153.653 1.584 155.493 3.104C157.349 4.624 158.725 6.68 159.621 9.272C160.517 11.848 160.965 14.824 160.965 18.2C160.965 21.576 160.517 24.56 159.621 27.152C158.725 29.728 157.349 31.776 155.493 33.296C153.653 34.816 151.445 35.576 148.869 35.576C146.293 35.576 144.077 34.816 142.221 33.296C140.381 31.776 139.013 29.728 138.117 27.152ZM144.453 18.2C144.453 21.464 144.821 24 145.557 25.808C146.293 27.616 147.397 28.52 148.869 28.52C150.341 28.52 151.445 27.616 152.181 25.808C152.917 24 153.285 21.464 153.285 18.2C153.285 14.952 152.917 12.424 152.181 10.616C151.445 8.808 150.341 7.904 148.869 7.904C147.397 7.904 146.293 8.808 145.557 10.616C144.821 12.424 144.453 14.952 144.453 18.2ZM180.906 1.4C181.45 1.4 181.874 1.552 182.178 1.856C182.482 2.16 182.634 2.584 182.634 3.128V33.272C182.634 33.816 182.482 34.24 182.178 34.544C181.874 34.848 181.45 35 180.906 35H176.466C175.906 35 175.474 34.848 175.17 34.544C174.882 34.24 174.738 33.816 174.738 33.272V8.792L170.97 10.832C169.962 11.376 169.178 11.144 168.618 10.136L167.37 7.856C166.826 6.848 167.058 6.072 168.066 5.528L174.69 1.952C175.362 1.584 176.074 1.4 176.826 1.4H180.906ZM194.608 34.304C193.744 33.456 193.312 32.408 193.312 31.16C193.312 29.912 193.744 28.864 194.608 28.016C195.488 27.168 196.584 26.744 197.896 26.744C199.208 26.744 200.296 27.168 201.16 28.016C202.04 28.864 202.48 29.912 202.48 31.16C202.48 32.408 202.04 33.456 201.16 34.304C200.296 35.152 199.208 35.576 197.896 35.576C196.584 35.576 195.488 35.152 194.608 34.304Z" fill="#23262F"/>
<path d="M222.627 1.4C223.171 1.4 223.595 1.552 223.899 1.856C224.203 2.16 224.355 2.584 224.355 3.128V33.272C224.355 33.816 224.203 34.24 223.899 34.544C223.595 34.848 223.171 35 222.627 35H218.187C217.627 35 217.195 34.848 216.891 34.544C216.603 34.24 216.459 33.816 216.459 33.272V8.792L212.691 10.832C211.683 11.376 210.899 11.144 210.339 10.136L209.091 7.856C208.547 6.848 208.779 6.072 209.787 5.528L216.411 1.952C217.083 1.584 217.795 1.4 218.547 1.4H222.627ZM256.248 1.4C256.792 1.4 257.216 1.552 257.52 1.856C257.824 2.16 257.976 2.584 257.976 3.128V6.44C257.976 7.208 257.84 7.92 257.568 8.576L247.248 33.656C246.88 34.552 246.216 35 245.256 35H240.48C239.824 35 239.368 34.816 239.112 34.448C238.872 34.08 238.88 33.592 239.136 32.984L249.48 8.264H237.816C237.272 8.264 236.848 8.112 236.544 7.808C236.24 7.504 236.088 7.08 236.088 6.536V3.128C236.088 2.584 236.24 2.16 236.544 1.856C236.848 1.552 237.272 1.4 237.816 1.4H256.248ZM264.286 27.152C263.39 24.56 262.942 21.576 262.942 18.2C262.942 14.824 263.39 11.848 264.286 9.272C265.182 6.68 266.55 4.624 268.39 3.104C270.246 1.584 272.462 0.823999 275.038 0.823999C277.614 0.823999 279.822 1.584 281.662 3.104C283.518 4.624 284.894 6.68 285.79 9.272C286.686 11.848 287.134 14.824 287.134 18.2C287.134 21.576 286.686 24.56 285.79 27.152C284.894 29.728 283.518 31.776 281.662 33.296C279.822 34.816 277.614 35.576 275.038 35.576C272.462 35.576 270.246 34.816 268.39 33.296C266.55 31.776 265.182 29.728 264.286 27.152ZM270.622 18.2C270.622 21.464 270.99 24 271.726 25.808C272.462 27.616 273.566 28.52 275.038 28.52C276.51 28.52 277.614 27.616 278.35 25.808C279.086 24 279.454 21.464 279.454 18.2C279.454 14.952 279.086 12.424 278.35 10.616C277.614 8.808 276.51 7.904 275.038 7.904C273.566 7.904 272.462 8.808 271.726 10.616C270.99 12.424 270.622 14.952 270.622 18.2ZM327.246 27.296C328.126 27.984 328.278 28.784 327.702 29.696C325.158 33.616 321.654 35.576 317.19 35.576C314.678 35.576 312.382 35.008 310.302 33.872C308.238 32.72 306.614 31.152 305.43 29.168C304.262 27.168 303.678 24.968 303.678 22.568C303.678 20.168 304.246 17.976 305.382 15.992C306.534 13.992 308.11 12.424 310.11 11.288C312.126 10.136 314.35 9.56 316.782 9.56C319.614 9.56 322.054 10.232 324.102 11.576C326.15 12.92 327.622 14.768 328.518 17.12C328.742 17.712 328.718 18.192 328.446 18.56C328.174 18.912 327.718 19.088 327.078 19.088H322.542C322.094 19.088 321.71 18.992 321.39 18.8C321.086 18.608 320.774 18.304 320.454 17.888C319.59 16.848 318.366 16.328 316.782 16.328C315.278 16.328 313.99 16.928 312.918 18.128C311.862 19.328 311.334 20.808 311.334 22.568C311.334 24.376 311.902 25.872 313.038 27.056C314.19 28.224 315.734 28.808 317.67 28.808C319.878 28.808 321.846 28.032 323.574 26.48C324.374 25.728 325.182 25.672 325.998 26.312L327.246 27.296ZM332.115 16.904C331.571 16.904 331.147 16.752 330.843 16.448C330.539 16.144 330.387 15.72 330.387 15.176V11.864C330.387 11.32 330.539 10.896 330.843 10.592C331.147 10.288 331.571 10.136 332.115 10.136H350.235C350.795 10.136 351.219 10.288 351.507 10.592C351.811 10.896 351.963 11.32 351.963 11.864V15.176C351.963 15.72 351.811 16.144 351.507 16.448C351.219 16.752 350.795 16.904 350.235 16.904H345.027V33.272C345.027 33.816 344.875 34.24 344.571 34.544C344.267 34.848 343.843 35 343.299 35H339.027C338.483 35 338.059 34.848 337.755 34.544C337.451 34.24 337.299 33.816 337.299 33.272V16.904H332.115ZM380.748 15.992C381.74 17.96 382.236 20.152 382.236 22.568C382.236 24.984 381.74 27.184 380.748 29.168C379.756 31.136 378.364 32.696 376.572 33.848C374.78 35 372.772 35.576 370.548 35.576C367.332 35.576 364.7 34.472 362.652 32.264V44.408C362.652 44.952 362.5 45.376 362.196 45.68C361.892 45.984 361.468 46.136 360.924 46.136H356.796C356.252 46.136 355.828 45.984 355.524 45.68C355.22 45.376 355.068 44.952 355.068 44.408V11.864C355.068 11.32 355.22 10.896 355.524 10.592C355.828 10.288 356.252 10.136 356.796 10.136H360.924C361.468 10.136 361.892 10.288 362.196 10.592C362.5 10.896 362.652 11.32 362.652 11.864V12.872C364.7 10.664 367.332 9.56 370.548 9.56C372.772 9.56 374.78 10.136 376.572 11.288C378.364 12.44 379.756 14.008 380.748 15.992ZM374.58 22.568C374.58 20.808 374.004 19.328 372.852 18.128C371.7 16.928 370.292 16.328 368.628 16.328C366.948 16.328 365.532 16.928 364.38 18.128C363.228 19.328 362.652 20.808 362.652 22.568C362.652 24.344 363.228 25.832 364.38 27.032C365.532 28.216 366.948 28.808 368.628 28.808C370.308 28.808 371.716 28.216 372.852 27.032C374.004 25.832 374.58 24.344 374.58 22.568ZM385.653 29.168C384.677 27.184 384.189 24.984 384.189 22.568C384.189 20.152 384.677 17.96 385.653 15.992C386.645 14.008 388.037 12.44 389.829 11.288C391.621 10.136 393.637 9.56 395.877 9.56C399.061 9.56 401.693 10.664 403.773 12.872V11.864C403.773 11.32 403.917 10.896 404.205 10.592C404.509 10.288 404.941 10.136 405.501 10.136H409.629C410.189 10.136 410.613 10.288 410.901 10.592C411.205 10.896 411.357 11.32 411.357 11.864V33.272C411.357 33.816 411.205 34.24 410.901 34.544C410.613 34.848 410.189 35 409.629 35H405.501C404.941 35 404.509 34.848 404.205 34.544C403.917 34.24 403.773 33.816 403.773 33.272V32.264C401.693 34.472 399.061 35.576 395.877 35.576C393.637 35.576 391.621 35 389.829 33.848C388.037 32.696 386.645 31.136 385.653 29.168ZM391.845 22.568C391.845 24.344 392.413 25.832 393.549 27.032C394.685 28.216 396.093 28.808 397.773 28.808C399.453 28.808 400.869 28.216 402.021 27.032C403.189 25.832 403.773 24.344 403.773 22.568C403.773 20.808 403.189 19.328 402.021 18.128C400.869 16.928 399.453 16.328 397.773 16.328C396.109 16.328 394.701 16.928 393.549 18.128C392.413 19.328 391.845 20.808 391.845 22.568ZM440.406 33.272C440.406 33.816 440.254 34.24 439.95 34.544C439.662 34.848 439.238 35 438.678 35H434.43C433.886 35 433.462 34.848 433.158 34.544C432.854 34.24 432.702 33.816 432.702 33.272V25.472H424.134V33.272C424.134 33.816 423.982 34.24 423.678 34.544C423.39 34.848 422.966 35 422.406 35H418.158C417.614 35 417.19 34.848 416.886 34.544C416.582 34.24 416.43 33.816 416.43 33.272V11.864C416.43 11.32 416.582 10.896 416.886 10.592C417.19 10.288 417.614 10.136 418.158 10.136H422.406C422.966 10.136 423.39 10.288 423.678 10.592C423.982 10.896 424.134 11.32 424.134 11.864V18.824H432.702V11.864C432.702 11.32 432.854 10.896 433.158 10.592C433.462 10.288 433.886 10.136 434.43 10.136H438.678C439.238 10.136 439.662 10.288 439.95 10.592C440.254 10.896 440.406 11.32 440.406 11.864V33.272Z" fill="#EE272E"/>
</svg>
