<svg width="18" height="18" viewBox="0 0 18 18" fill="none" xmlns="http://www.w3.org/2000/svg">
<path fill-rule="evenodd" clip-rule="evenodd" d="M9 2.30474C7.43388 0.808175 5.32285 0.586586 3.55441 1.26651C1.58266 2.02461 0 3.91326 0 6.39843C0 8.29588 0.855749 10.0064 2.02764 11.5087C3.19933 13.0108 4.73132 14.361 6.17747 15.5445L6.21024 15.5713C6.75154 16.0144 7.20603 16.3863 7.61055 16.6421C8.039 16.9129 8.4807 17.0999 9 17.0999C9.5193 17.0999 9.961 16.9129 10.3895 16.6421C10.794 16.3863 11.2485 16.0144 11.7898 15.5713L11.8225 15.5445C13.2687 14.361 14.8007 13.0108 15.9724 11.5087C17.1443 10.0064 18 8.29588 18 6.39843C18 3.91326 16.4173 2.02461 14.4456 1.26651C12.6771 0.586586 10.5661 0.808175 9 2.30474Z" fill="#EE575C"/>
</svg>
