<svg width="24" height="24" viewBox="0 0 24 24" fill="none" xmlns="http://www.w3.org/2000/svg">
<path fill-rule="evenodd" clip-rule="evenodd" d="M12 0C12.4142 0 12.75 0.335786 12.75 0.75V6.375C12.75 6.78921 12.4142 7.125 12 7.125C11.5858 7.125 11.25 6.78921 11.25 6.375V0.75C11.25 0.335786 11.5858 0 12 0ZM3.5148 3.51514C3.80769 3.22225 4.28257 3.22225 4.57546 3.51514L8.55294 7.49262C8.84583 7.78551 8.84583 8.26039 8.55294 8.55328C8.26004 8.84617 7.78517 8.84617 7.49228 8.55328L3.5148 4.5758C3.22191 4.28291 3.22191 3.80804 3.5148 3.51514ZM20.4851 3.51557C20.778 3.80846 20.778 4.28334 20.4851 4.57623L16.5076 8.55371C16.2147 8.8466 15.7399 8.8466 15.447 8.55371C15.1541 8.26081 15.1541 7.78594 15.447 7.49304L19.4245 3.51557C19.7174 3.22268 20.1922 3.22268 20.4851 3.51557ZM0 12C0 11.5858 0.335786 11.25 0.75 11.25H6.375C6.78921 11.25 7.125 11.5858 7.125 12C7.125 12.4142 6.78921 12.75 6.375 12.75H0.75C0.335786 12.75 0 12.4142 0 12ZM16.875 12C16.875 11.5858 17.2108 11.25 17.625 11.25H23.25C23.6642 11.25 24 11.5858 24 12C24 12.4142 23.6642 12.75 23.25 12.75H17.625C17.2108 12.75 16.875 12.4142 16.875 12ZM15.447 15.4463C15.7399 15.1534 16.2148 15.1534 16.5076 15.4463L20.4851 19.4238C20.778 19.7167 20.778 20.1915 20.4851 20.4844C20.1922 20.7773 19.7174 20.7773 19.4245 20.4844L15.447 16.507C15.1541 16.2141 15.1541 15.7392 15.447 15.4463ZM8.55294 15.4467C8.84583 15.7396 8.84583 16.2145 8.55294 16.5074L4.57546 20.4849C4.28257 20.7778 3.80769 20.7778 3.5148 20.4849C3.22191 20.192 3.22191 19.7171 3.5148 19.4242L7.49228 15.4467C7.78517 15.1538 8.26004 15.1538 8.55294 15.4467ZM12 16.875C12.4142 16.875 12.75 17.2108 12.75 17.625V23.25C12.75 23.6642 12.4142 24 12 24C11.5858 24 11.25 23.6642 11.25 23.25V17.625C11.25 17.2108 11.5858 16.875 12 16.875Z" fill="white"/>
</svg>
