<svg width="335" height="37" viewBox="0 0 335 37" fill="none" xmlns="http://www.w3.org/2000/svg">
<path d="M12.336 27C12.336 28.008 12.584 28.744 13.08 29.208C13.576 29.672 14.392 29.904 15.528 29.904H16.272C17.456 29.856 18.048 30.408 18.048 31.56V34.032C18.048 35.072 17.624 35.736 16.776 36.024C15.704 36.392 14.504 36.576 13.176 36.576C10.504 36.576 8.408 35.808 6.888 34.272C5.368 32.72 4.608 30.56 4.608 27.792V17.808H2.256C1.712 17.808 1.288 17.656 0.984 17.352C0.68 17.048 0.528 16.624 0.528 16.08V12.864C0.528 12.32 0.68 11.896 0.984 11.592C1.288 11.288 1.712 11.136 2.256 11.136H4.608V6.696C4.608 5.624 5.136 5.008 6.192 4.848L10.488 4.2C11.064 4.12 11.512 4.224 11.832 4.512C12.168 4.784 12.336 5.216 12.336 5.808V11.136H16.032C16.576 11.136 17 11.288 17.304 11.592C17.608 11.896 17.76 12.32 17.76 12.864V16.08C17.76 16.624 17.608 17.048 17.304 17.352C17 17.656 16.576 17.808 16.032 17.808H12.336V27ZM33.8816 17.328C32.5216 17.328 31.3696 17.824 30.4256 18.816C29.4976 19.792 29.0336 21.12 29.0336 22.8V34.272C29.0336 34.816 28.8816 35.24 28.5776 35.544C28.2896 35.848 27.8656 36 27.3056 36H23.0576C22.5136 36 22.0896 35.848 21.7856 35.544C21.4816 35.24 21.3296 34.816 21.3296 34.272V12.864C21.3296 12.32 21.4816 11.896 21.7856 11.592C22.0896 11.288 22.5136 11.136 23.0576 11.136H27.3056C27.8656 11.136 28.2896 11.288 28.5776 11.592C28.8816 11.896 29.0336 12.32 29.0336 12.864V13.944C30.7616 11.688 32.9536 10.56 35.6096 10.56C35.7536 10.56 35.8656 10.568 35.9456 10.584C36.4416 10.616 36.8016 10.808 37.0256 11.16C37.2656 11.512 37.3696 11.96 37.3376 12.504L37.0496 16.008C36.9536 17.128 36.2896 17.6 35.0576 17.424C34.6896 17.36 34.2976 17.328 33.8816 17.328ZM40.1096 30.168C38.9096 28.168 38.3096 25.968 38.3096 23.568C38.3096 21.168 38.9096 18.976 40.1096 16.992C41.3256 14.992 42.9976 13.424 45.1256 12.288C47.2536 11.136 49.6216 10.56 52.2296 10.56C54.8376 10.56 57.2056 11.136 59.3336 12.288C61.4616 13.424 63.1256 14.992 64.3256 16.992C65.5416 18.976 66.1496 21.168 66.1496 23.568C66.1496 25.968 65.5416 28.168 64.3256 30.168C63.1256 32.152 61.4616 33.72 59.3336 34.872C57.2056 36.008 54.8376 36.576 52.2296 36.576C49.6216 36.576 47.2536 36.008 45.1256 34.872C42.9976 33.72 41.3256 32.152 40.1096 30.168ZM45.9656 23.568C45.9656 25.344 46.5576 26.832 47.7416 28.032C48.9416 29.216 50.4376 29.808 52.2296 29.808C54.0216 29.808 55.5096 29.216 56.6936 28.032C57.8936 26.832 58.4936 25.344 58.4936 23.568C58.4936 21.808 57.8936 20.328 56.6936 19.128C55.4936 17.928 54.0056 17.328 52.2296 17.328C50.4536 17.328 48.9656 17.928 47.7656 19.128C46.5656 20.328 45.9656 21.808 45.9656 23.568ZM69.5636 30.168C68.5876 28.184 68.0996 25.984 68.0996 23.568C68.0996 21.152 68.5876 18.96 69.5636 16.992C70.5556 15.008 71.9476 13.44 73.7396 12.288C75.5316 11.136 77.5476 10.56 79.7876 10.56C82.9716 10.56 85.6036 11.664 87.6836 13.872V2.688C87.6836 2.144 87.8276 1.72 88.1156 1.416C88.4196 1.112 88.8516 0.959999 89.4116 0.959999H93.5396C94.0996 0.959999 94.5236 1.112 94.8116 1.416C95.1156 1.72 95.2676 2.144 95.2676 2.688V34.272C95.2676 34.816 95.1156 35.24 94.8116 35.544C94.5236 35.848 94.0996 36 93.5396 36H89.4116C88.8516 36 88.4196 35.848 88.1156 35.544C87.8276 35.24 87.6836 34.816 87.6836 34.272V33.264C85.6036 35.472 82.9716 36.576 79.7876 36.576C77.5476 36.576 75.5316 36 73.7396 34.848C71.9476 33.696 70.5556 32.136 69.5636 30.168ZM75.7556 23.568C75.7556 25.344 76.3236 26.832 77.4596 28.032C78.5956 29.216 80.0036 29.808 81.6836 29.808C83.3636 29.808 84.7796 29.216 85.9316 28.032C87.0996 26.832 87.6836 25.344 87.6836 23.568C87.6836 21.808 87.0996 20.328 85.9316 19.128C84.7796 17.928 83.3636 17.328 81.6836 17.328C80.0196 17.328 78.6116 17.928 77.4596 19.128C76.3236 20.328 75.7556 21.808 75.7556 23.568ZM100.244 30.168C99.2683 28.184 98.7803 25.984 98.7803 23.568C98.7803 21.152 99.2683 18.96 100.244 16.992C101.236 15.008 102.628 13.44 104.42 12.288C106.212 11.136 108.228 10.56 110.468 10.56C113.652 10.56 116.284 11.664 118.364 13.872V12.864C118.364 12.32 118.508 11.896 118.796 11.592C119.1 11.288 119.532 11.136 120.092 11.136H124.22C124.78 11.136 125.204 11.288 125.492 11.592C125.796 11.896 125.948 12.32 125.948 12.864V34.272C125.948 34.816 125.796 35.24 125.492 35.544C125.204 35.848 124.78 36 124.22 36H120.092C119.532 36 119.1 35.848 118.796 35.544C118.508 35.24 118.364 34.816 118.364 34.272V33.264C116.284 35.472 113.652 36.576 110.468 36.576C108.228 36.576 106.212 36 104.42 34.848C102.628 33.696 101.236 32.136 100.244 30.168ZM106.436 23.568C106.436 25.344 107.004 26.832 108.14 28.032C109.276 29.216 110.684 29.808 112.364 29.808C114.044 29.808 115.46 29.216 116.612 28.032C117.78 26.832 118.364 25.344 118.364 23.568C118.364 21.808 117.78 20.328 116.612 19.128C115.46 17.928 114.044 17.328 112.364 17.328C110.7 17.328 109.292 17.928 108.14 19.128C107.004 20.328 106.436 21.808 106.436 23.568ZM140.098 27C140.098 28.008 140.346 28.744 140.842 29.208C141.338 29.672 142.154 29.904 143.29 29.904H144.034C145.218 29.856 145.81 30.408 145.81 31.56V34.032C145.81 35.072 145.386 35.736 144.538 36.024C143.466 36.392 142.266 36.576 140.938 36.576C138.266 36.576 136.17 35.808 134.65 34.272C133.13 32.72 132.37 30.56 132.37 27.792V17.808H130.018C129.474 17.808 129.05 17.656 128.746 17.352C128.442 17.048 128.29 16.624 128.29 16.08V12.864C128.29 12.32 128.442 11.896 128.746 11.592C129.05 11.288 129.474 11.136 130.018 11.136H132.37V6.696C132.37 5.624 132.898 5.008 133.954 4.848L138.25 4.2C138.826 4.12 139.274 4.224 139.594 4.512C139.93 4.784 140.098 5.216 140.098 5.808V11.136H143.794C144.338 11.136 144.762 11.288 145.066 11.592C145.37 11.896 145.522 12.32 145.522 12.864V16.08C145.522 16.624 145.37 17.048 145.066 17.352C144.762 17.656 144.338 17.808 143.794 17.808H140.098V27ZM150.052 35.304C149.188 34.456 148.756 33.408 148.756 32.16C148.756 30.912 149.188 29.864 150.052 29.016C150.932 28.168 152.028 27.744 153.34 27.744C154.652 27.744 155.74 28.168 156.604 29.016C157.484 29.864 157.924 30.912 157.924 32.16C157.924 33.408 157.484 34.456 156.604 35.304C155.74 36.152 154.652 36.576 153.34 36.576C152.028 36.576 150.932 36.152 150.052 35.304Z" fill="#2F2F2F"/>
<path d="M176.295 14.376C179.831 14.376 182.711 15.384 184.935 17.4C187.159 19.416 188.271 22.016 188.271 25.2C188.271 28.368 187.159 30.96 184.935 32.976C182.711 34.992 179.831 36 176.295 36H164.871C164.327 36 163.903 35.848 163.599 35.544C163.295 35.24 163.143 34.816 163.143 34.272V4.128C163.143 3.584 163.295 3.16 163.599 2.856C163.903 2.552 164.327 2.4 164.871 2.4H183.447C183.991 2.4 184.415 2.552 184.719 2.856C185.023 3.16 185.175 3.584 185.175 4.128V7.176C185.175 7.736 185.023 8.168 184.719 8.472C184.415 8.76 183.991 8.904 183.447 8.904H171.111V14.376H176.295ZM180.279 25.2C180.279 23.792 179.839 22.72 178.959 21.984C178.095 21.248 176.887 20.88 175.335 20.88H171.111V29.52H175.335C176.903 29.52 178.119 29.16 178.983 28.44C179.847 27.704 180.279 26.624 180.279 25.2ZM215.797 34.272C215.797 34.816 215.645 35.24 215.341 35.544C215.037 35.848 214.613 36 214.069 36H210.037C209.493 36 209.069 35.848 208.765 35.544C208.461 35.24 208.309 34.816 208.309 34.272V22.104L199.333 34.92C198.821 35.64 198.125 36 197.245 36H193.525C192.981 36 192.557 35.848 192.253 35.544C191.949 35.24 191.797 34.816 191.797 34.272V12.864C191.797 12.32 191.949 11.896 192.253 11.592C192.557 11.288 192.981 11.136 193.525 11.136H197.557C198.101 11.136 198.525 11.288 198.829 11.592C199.133 11.896 199.285 12.32 199.285 12.864V25.032L208.261 12.216C208.773 11.496 209.469 11.136 210.349 11.136H214.069C214.613 11.136 215.037 11.288 215.341 11.592C215.645 11.896 215.797 12.32 215.797 12.864V34.272ZM253.26 34.272C253.26 34.816 253.108 35.24 252.804 35.544C252.516 35.848 252.092 36 251.532 36H222.612C222.068 36 221.644 35.848 221.34 35.544C221.036 35.24 220.884 34.816 220.884 34.272V12.864C220.884 12.32 221.036 11.896 221.34 11.592C221.644 11.288 222.068 11.136 222.612 11.136H226.548C227.092 11.136 227.516 11.288 227.82 11.592C228.124 11.896 228.276 12.32 228.276 12.864V29.376H233.388V12.864C233.388 12.32 233.532 11.896 233.82 11.592C234.124 11.288 234.556 11.136 235.116 11.136H239.004C239.564 11.136 239.988 11.288 240.276 11.592C240.58 11.896 240.732 12.32 240.732 12.864V29.376H245.868V12.864C245.868 12.32 246.012 11.896 246.3 11.592C246.604 11.288 247.036 11.136 247.596 11.136H251.532C252.092 11.136 252.516 11.288 252.804 11.592C253.108 11.896 253.26 12.32 253.26 12.864V34.272ZM278.353 11.136C278.929 11.136 279.361 11.288 279.649 11.592C279.953 11.896 280.089 12.336 280.057 12.912C279.769 18.224 278.217 21.864 275.401 23.832L280.633 33.96C280.937 34.552 280.969 35.04 280.729 35.424C280.505 35.808 280.057 36 279.385 36H274.705C273.761 36 273.081 35.576 272.665 34.728L268.297 25.728H266.089V34.272C266.089 34.816 265.937 35.24 265.633 35.544C265.329 35.848 264.905 36 264.361 36H260.089C259.545 36 259.121 35.848 258.817 35.544C258.513 35.24 258.361 34.816 258.361 34.272V12.864C258.361 12.32 258.513 11.896 258.817 11.592C259.121 11.288 259.545 11.136 260.089 11.136H264.361C264.905 11.136 265.329 11.288 265.633 11.592C265.937 11.896 266.089 12.32 266.089 12.864V19.104H267.625C270.425 19.104 271.985 17.04 272.305 12.912C272.401 11.728 272.993 11.136 274.081 11.136H278.353ZM289.398 25.704C289.67 27.288 290.39 28.528 291.558 29.424C292.742 30.32 294.254 30.768 296.094 30.768C298.67 30.768 300.91 30.104 302.814 28.776C303.742 28.136 304.55 28.208 305.238 28.992L306.27 30.144C307.038 31.024 307.022 31.84 306.222 32.592C303.374 35.248 299.966 36.576 295.998 36.576C291.774 36.576 288.326 35.336 285.654 32.856C282.998 30.376 281.67 27.28 281.67 23.568C281.67 21.776 282.014 20.08 282.702 18.48C283.406 16.864 284.358 15.48 285.558 14.328C286.774 13.16 288.222 12.24 289.902 11.568C291.598 10.896 293.398 10.56 295.302 10.56C299.062 10.56 302.19 11.784 304.686 14.232C307.198 16.664 308.454 19.64 308.454 23.16C308.454 23.496 308.43 23.832 308.382 24.168C308.286 25.192 307.67 25.704 306.534 25.704H289.398ZM298.734 17.568C297.79 16.768 296.614 16.368 295.206 16.368C293.798 16.368 292.59 16.768 291.582 17.568C290.574 18.352 289.886 19.44 289.518 20.832H300.606C300.302 19.44 299.678 18.352 298.734 17.568ZM331.934 11.136C332.51 11.136 332.942 11.288 333.23 11.592C333.534 11.896 333.67 12.336 333.638 12.912C333.35 18.224 331.798 21.864 328.982 23.832L334.214 33.96C334.518 34.552 334.55 35.04 334.31 35.424C334.086 35.808 333.638 36 332.966 36H328.286C327.342 36 326.662 35.576 326.246 34.728L321.878 25.728H319.67V34.272C319.67 34.816 319.518 35.24 319.214 35.544C318.91 35.848 318.486 36 317.942 36H313.67C313.126 36 312.702 35.848 312.398 35.544C312.094 35.24 311.942 34.816 311.942 34.272V12.864C311.942 12.32 312.094 11.896 312.398 11.592C312.702 11.288 313.126 11.136 313.67 11.136H317.942C318.486 11.136 318.91 11.288 319.214 11.592C319.518 11.896 319.67 12.32 319.67 12.864V19.104H321.206C324.006 19.104 325.566 17.04 325.886 12.912C325.982 11.728 326.574 11.136 327.662 11.136H331.934Z" fill="#EE272E"/>
</svg>
